<svg xmlns="http://www.w3.org/2000/svg" viewBox="0 0 2450 714" role="img" aria-label="Trove">
  <g fill="#191621" transform="translate(0 700) scale(1 -1)">
    <path d="M233.95 0V590.85H24.7V700H563.3V590.85H354.05V0Z"/>
    <path transform="translate(510)" d="M73.15 0V494.25H185.6V437.38H202.55Q214.08 467.9 239.93 482.08Q265.78 496.25 302.4 496.25H361.88V394.05H299.53Q250.3 394.05 218.95 367.59Q187.6 341.12 187.6 285.85V0Z"/>
    <path transform="translate(835)" d="M306.7-14Q232.7-14 174.31 16.26Q115.92 46.52 82.54 103.44Q49.15 160.35 49.15 239.48V254.78Q49.15 333.9 82.54 390.81Q115.92 447.73 174.31 477.99Q232.7 508.25 306.7 508.25Q380.7 508.25 439.09 477.99Q497.48 447.73 530.86 390.81Q564.25 333.9 564.25 254.78V239.48Q564.25 160.35 530.86 103.44Q497.48 46.52 439.09 16.26Q380.7-14 306.7-14Zm0 101.85q62.9 0 103 40.48 40.1 40.47 40.1 113.97v9.65q0 73.5-39.69 113.97-39.69 40.48-103.41 40.48-62.72 0-102.91-40.48-40.19-40.47-40.19-113.97v-9.65q0-73.5 40.19-113.97 40.19-40.48 102.91-40.48Z"/>
    <path transform="translate(1390)" d="M182.05 0 19.85 494.25H141.6L264.48 83.95h16.95L404.3 494.25h121.75L363.85 0Z"/>
    <path transform="translate(1880)" d="M298.8-14Q224.62-14 168.3 17.5 111.97 49 80.56 106.41 49.15 163.83 49.15 241.13v12q0 77.47 31 134.8 31 57.32 86.74 88.82 55.73 31.5 129.03 31.5 72.13 0 125.87-31.8 53.73-31.8 83.73-88.6 30-56.8 30-132.45v-41.08H165.25q2.18-57.99 41.06-93.06 38.89-35.06 95.79-35.06 55.62 0 82.81 24.4 27.19 24.4 41.41 55.38l94.43-48.76Q506.57 90 480.07 59.33 453.57 28.65 409.92 7.33 366.27-14 298.8-14ZM166.25 300.98h253q-4 49.29-37.39 78.18-33.39 28.89-86.76 28.89-54.85 0-88-28.89-33.15-28.89-40.85-78.18Z"/>
  </g>
</svg>
